<svg width="62" height="58" viewBox="0 0 62 58" fill="none" xmlns="http://www.w3.org/2000/svg">
<g clip-path="url(#clip0_56_877)">
<path d="M51.6668 14.4999H43.9168V9.66659C43.9168 6.98409 41.6176 4.83325 38.7501 4.83325H23.2501C20.3826 4.83325 18.0834 6.98409 18.0834 9.66659V14.4999H10.3334C7.46591 14.4999 5.16675 16.6508 5.16675 19.3333V45.9166C5.16675 48.5991 7.46591 50.7499 10.3334 50.7499H51.6668C54.5343 50.7499 56.8334 48.5991 56.8334 45.9166V19.3333C56.8334 16.6508 54.5343 14.4999 51.6668 14.4999ZM23.2501 9.66659H38.7501V14.4999H23.2501V9.66659ZM51.6668 45.9166H10.3334V41.0833H51.6668V45.9166ZM51.6668 33.8333H10.3334V19.3333H18.0834V24.1666H23.2501V19.3333H38.7501V24.1666H43.9168V19.3333H51.6668V33.8333Z" fill="#21408E"/>
</g>
<defs>
<clipPath id="clip0_56_877">
<rect width="62" height="58" fill="white"/>
</clipPath>
</defs>
</svg>
