<svg width="20" height="20" viewBox="0 0 20 20" fill="none" xmlns="http://www.w3.org/2000/svg">
<path d="M19.1152 4.7L19.1273 4.68889L14.6182 0.555556L13.3333 1.73333L15.8909 4.07778C14.7515 4.47778 13.9394 5.47778 13.9394 6.66667C13.9394 8.2 15.297 9.44444 16.9697 9.44444C17.4061 9.44444 17.8061 9.35556 18.1818 9.21111V17.2222C18.1818 17.8333 17.6364 18.3333 16.9697 18.3333C16.303 18.3333 15.7576 17.8333 15.7576 17.2222V12.2222C15.7576 11 14.6667 10 13.3333 10H12.1212V2.22222C12.1212 1 11.0303 0 9.69697 0H2.42424C1.09091 0 0 1 0 2.22222V20H12.1212V11.6667H13.9394V17.2222C13.9394 18.7556 15.297 20 16.9697 20C18.6424 20 20 18.7556 20 17.2222V6.66667C20 5.9 19.6606 5.2 19.1152 4.7ZM16.9697 7.77778C16.303 7.77778 15.7576 7.27778 15.7576 6.66667C15.7576 6.05556 16.303 5.55556 16.9697 5.55556C17.6364 5.55556 18.1818 6.05556 18.1818 6.66667C18.1818 7.27778 17.6364 7.77778 16.9697 7.77778ZM4.84848 16.6667V11.6667H2.42424L7.27273 3.33333V8.88889H9.69697L4.84848 16.6667Z" fill="#F1BC00"/>
</svg>
