<?xml version="1.0" encoding="utf-8"?>
<!-- Generator: Adobe Illustrator 21.1.0, SVG Export Plug-In . SVG Version: 6.00 Build 0)  -->
<svg version="1.1" xmlns="http://www.w3.org/2000/svg" xmlns:xlink="http://www.w3.org/1999/xlink" x="0px" y="0px"
	 viewBox="0 0 162.5 177" style="enable-background:new 0 0 162.5 177;" xml:space="preserve">
<style type="text/css">
	.st0{fill:#FFFFFF;}
	.st1{fill:#652D89;}
	.st2{fill:none;}
</style>
<g id="Layer_4">
</g>
<g id="Layer_15">
</g>
<g id="Layer_13">
</g>
<g id="Layer_12">
</g>
<g id="Layer_7">
</g>
<g id="Layer_6">
</g>
<g id="Layer_5">
</g>
<g id="Layer_1">
	<path class="st0" d="M95.8,110l-3.9,3.8l-2.9-3l3.9-3.8c-0.8-0.3-1.7-0.4-2.5-0.3c-1.3,0-2.6,0.5-3.6,1.5c-1.5,1.5-2,3.6-1.4,5.5
		l-1.7,1.7l-5.4,5.4L76,123c-1.3-0.2-2.7,0.2-3.8,1.2c-1.7,1.7-1.7,4.5,0,6.2c1.7,1.7,4.5,1.7,6.2,0c1.1-1.1,1.5-2.6,1.2-3.9l2-2
		l5.4-5.4l1.8-1.8c1.9,0.6,4,0.2,5.5-1.3c1-1,1.6-2.3,1.6-3.6C96.2,111.7,96.1,110.8,95.8,110z M75.4,128.9c-0.8,0-1.5-0.7-1.5-1.5
		c0-0.8,0.7-1.5,1.5-1.5c0.8,0,1.5,0.7,1.5,1.5C76.9,128.2,76.2,128.9,75.4,128.9z"/>
</g>
<g id="Layer_11">
	<path class="st0" d="M93.3,125.8l-6.2-6.7l-3.5-3.7l-5.8-6.3c-0.1-0.1-0.2-0.2-0.4-0.3l-6.2-2.1c-0.3-0.1-0.5,0-0.8,0.2l0,0
		c-0.2,0.2-0.3,0.5-0.2,0.7L72,114c0,0.2,0.1,0.3,0.2,0.4l6,6.5l3.5,3.7l6,6.4c0.8,0.8,2,0.9,2.8,0.1l2.8-2.6
		C94,127.8,94,126.6,93.3,125.8z M73.1,113l-0.8-3.2l1.4-1.3l3.1,1L73.1,113z M77.7,112.1c-0.1-0.1-0.1-0.3,0-0.4l0.2-0.2
		c0.1-0.1,0.3-0.1,0.4,0l11.2,12.1c0.1,0.1,0.1,0.3,0,0.4l-0.2,0.2c-0.1,0.1-0.3,0.1-0.4,0L77.7,112.1z M91.8,127.7l-1.8,1.7
		c-0.5,0.5-1.3,0.4-1.8-0.1l-1.1-1.2l3.6-3.4l1.1,1.2C92.3,126.5,92.3,127.3,91.8,127.7z"/>
</g>
<g id="Layer_10">
	<line class="st1" x1="57.3" y1="94.5" x2="57.3" y2="94.5"/>
	<circle class="st0" cx="103.7" cy="110.2" r="1.6"/>
	<circle class="st0" cx="99.3" cy="102.1" r="1.6"/>
	<circle class="st0" cx="68" cy="101.5" r="1.6"/>
	<circle class="st0" cx="62.7" cy="109.4" r="1.6"/>
	<path class="st0" d="M64,121.8c-0.3,0-0.5,0.1-0.8,0l-0.6,0.9l-0.9-0.3l0.2-1.1c-0.2-0.2-0.4-0.3-0.6-0.5l-1.1,0.3l-0.4-0.8
		l0.9-0.6c0-0.3,0-0.5,0-0.8l-0.9-0.6l0.3-0.9l1.1,0.2c0.2-0.2,0.3-0.4,0.5-0.6l-0.3-1.1l0.8-0.4l0.6,0.9c0.3,0,0.5,0,0.8,0l0.6-0.9
		l0.9,0.3l-0.2,1.1c0.2,0.2,0.4,0.3,0.6,0.5l1.1-0.3l0.4,0.8l-0.9,0.6c0,0.3,0.1,0.5,0,0.8l0.9,0.6l-0.3,0.9l-1.1-0.2
		c-0.2,0.2-0.3,0.4-0.5,0.6l0.3,1.1l-0.8,0.4L64,121.8z"/>
	<circle class="st0" cx="66.3" cy="129.6" r="1.6"/>
	<path class="st0" d="M72.2,138.7c-0.9,0-1.6-0.7-1.6-1.6c0-0.9,0.7-1.6,1.6-1.6c0.9,0,1.6,0.7,1.6,1.6
		C73.8,137.9,73.1,138.7,72.2,138.7z"/>
</g>
<g id="Layer_9">
</g>
<g id="Layer_8">
</g>
<g id="Layer_2">
	<path class="st2" d="M56.3,74.2c1.1,0.3,2.2,0.6,3.4,0.7c-0.1,0.1-0.1,0.3-0.1,0.5l0.1,1.7c0,0.6,0.5,1.1,1.1,1.1l1.8-0.1
		c0.6,0,1.1-0.5,1.1-1.1l-0.1-1.7c0-0.2-0.1-0.3-0.1-0.5c1.1-0.2,2.2-0.5,3.3-0.9c0,0.1,0,0.3,0.1,0.4l0.8,1.5
		c0.3,0.5,1,0.7,1.5,0.5l1.6-0.8c0.5-0.3,0.7-0.9,0.5-1.5l-0.8-1.5c-0.1-0.1-0.2-0.3-0.3-0.3c0.9-0.6,1.8-1.4,2.6-2.2
		c0.1,0.1,0.2,0.2,0.3,0.3l1.4,1c0.5,0.4,1.2,0.2,1.5-0.2l1.1-1.4c0.4-0.5,0.2-1.2-0.2-1.5l-1.4-1c-0.1-0.1-0.2-0.1-0.4-0.2
		c0.6-1,1-2,1.3-3.1c0.1,0.1,0.2,0.1,0.4,0.1l1.7,0.3c0.6,0.1,1.2-0.3,1.3-0.9l0.3-1.8c0.1-0.6-0.3-1.2-0.9-1.3l-1.7-0.3
		c-0.1,0-0.3,0-0.4,0c0.1-1.1,0-2.3-0.2-3.4c0.1,0,0.2,0,0.4,0L79,56c0.6-0.2,0.9-0.8,0.8-1.4L79.2,53c-0.2-0.6-0.8-0.9-1.4-0.8
		l-1.7,0.5c-0.1,0-0.2,0.1-0.3,0.2c-0.4-1-1-2-1.6-3c0.1,0,0.2-0.1,0.3-0.2l1.3-1.2c0.4-0.4,0.5-1.1,0.1-1.5l-1.2-1.3
		c-0.4-0.4-1.1-0.5-1.6-0.1l-1.3,1.2c-0.1,0.1-0.2,0.2-0.2,0.3c-0.8-0.7-1.6-1.3-2.5-1.8c-0.1-0.1-0.2-0.1-0.3-0.1
		c0.1-0.1,0.1-0.2,0.2-0.3l0.7-1.6c0.2-0.6,0-1.2-0.6-1.4l-1.7-0.7c-0.6-0.2-1.2,0-1.4,0.6l-0.7,1.6c0,0.1-0.1,0.2-0.1,0.3
		c-0.7-0.2-1.5-0.4-2.3-0.4c0-0.1,0.1-0.2,0.1-0.3v-1.7c0-0.6-0.5-1.1-1.1-1.1h-1.8c-0.6,0-1.1,0.5-1.1,1.1v1.7c0,0.1,0,0.3,0.1,0.4
		c-1.1,0.1-2.2,0.4-3.3,0.8c0-0.1,0-0.3-0.1-0.4l-0.8-1.6c-0.3-0.5-0.9-0.8-1.5-0.5l-1.6,0.8c-0.5,0.3-0.8,0.9-0.5,1.5l0.8,1.6
		c0.1,0.1,0.1,0.2,0.2,0.3c-0.9,0.6-1.8,1.3-2.6,2.1c-0.1-0.1-0.2-0.2-0.3-0.3l-1.4-1.1c-0.5-0.4-1.2-0.3-1.5,0.2l-1.1,1.4
		c-0.4,0.5-0.3,1.2,0.2,1.5l1.4,1.1c0.1,0.1,0.3,0.2,0.4,0.2c0,0.1-0.1,0.1-0.1,0.2c-0.5,0.9-1,1.9-1.3,2.9
		c-0.1-0.1-0.3-0.1-0.4-0.2l-1.7-0.4c-0.6-0.1-1.2,0.3-1.3,0.8L42.1,56c-0.1,0.6,0.3,1.2,0.9,1.3l1.7,0.4c0.2,0,0.3,0,0.5,0
		c-0.1,1.1-0.1,2.3,0.1,3.4c-0.2,0-0.3,0-0.5,0l-1.7,0.4c-0.6,0.1-1,0.7-0.8,1.3l0.4,1.7c0.1,0.6,0.8,0.9,1.3,0.8l1.7-0.4
		c0.2,0,0.3-0.1,0.4-0.2c0.4,1.1,0.9,2.1,1.6,3c-0.2,0-0.3,0.1-0.5,0.2L45.9,69c-0.5,0.4-0.5,1.1-0.1,1.5L47,72
		c0.4,0.5,1.1,0.5,1.6,0.1l1.3-1.1c0.1-0.1,0.2-0.3,0.3-0.4c0.8,0.8,1.7,1.5,2.8,2.1c-0.1,0.1-0.2,0.2-0.3,0.4l-0.7,1.6
		c-0.2,0.6,0,1.2,0.6,1.4l1.6,0.7c0.6,0.2,1.2,0,1.5-0.6l0.7-1.6C56.3,74.5,56.3,74.3,56.3,74.2z M68.8,52.8
		c1.4,1.7,2.3,3.9,2.3,6.3c0,2.4-0.8,4.6-2.3,6.3l-3.7-3.7c0.7-1,0.9-2.2,0.7-3.4c-0.1-0.7-0.4-1.3-0.7-1.9L68.8,52.8z M61.1,49.1
		c2.4,0,4.6,0.8,6.3,2.3L63.7,55c-1-0.6-2.1-0.9-3.4-0.7c-0.7,0.1-1.3,0.4-1.9,0.7l-3.7-3.7C56.5,49.9,58.7,49.1,61.1,49.1z
		 M63.4,60.8c-0.4,0.6-1.1,1-1.9,1.1c-1.6,0.3-3-0.8-3.3-2.4c-0.2-1.6,0.8-3,2.4-3.3c0.2,0,0.3,0,0.4,0c1.4,0,2.6,1,2.8,2.4
		C64,59.4,63.9,60.1,63.4,60.8z M53.4,65.4c-1.4-1.7-2.3-3.9-2.3-6.3c0-2.4,0.8-4.6,2.3-6.3l3.7,3.7c-0.6,1-0.9,2.2-0.7,3.4
		c0.1,0.7,0.4,1.3,0.7,1.9L53.4,65.4z M54.8,66.8l3.7-3.7c0.8,0.5,1.7,0.8,2.6,0.8c0.3,0,0.5,0,0.8-0.1c0.7-0.1,1.3-0.4,1.9-0.7
		l3.7,3.7c-1.7,1.4-3.9,2.3-6.3,2.3C58.7,69.1,56.5,68.2,54.8,66.8z"/>
	<path class="st2" d="M83.2,51c2.7-8.3,9.1-15.2,17.1-20c0.4-0.3,0.9-0.5,1.4-0.8c-5.4-3.6-11.8-5.5-18.5-5.5c-6.6,0-13,2-18.4,5.6
		c0.4,0.2,0.9,0.5,1.3,0.7C74.1,35.9,80.5,42.8,83.2,51z"/>
	<path class="st2" d="M83.2,86.5c0,0,1.7-1.3,3.5-3.2c-0.3-0.2-0.7-0.4-1-0.5c0,0,0,0,0,0c-1.6-0.7-3.3-0.7-5,0c0,0,0,0,0,0
		c-0.4,0.1-0.7,0.3-1,0.5C81.5,85.2,83.2,86.5,83.2,86.5z"/>
	<path class="st2" d="M81.2,75.9c1.3-0.2,2.6-0.2,3.9,0l1.5-2.5c0.9,0.2,1.7,0.4,2.5,0.8v0c0,0,0,0,0,0c0.2,0.1,0.3,0.1,0.5,0.2
		l-6.4-7.7l-6.3,7.7c0.9-0.4,1.8-0.7,2.8-0.9L81.2,75.9z"/>
	<path class="st2" d="M123.4,60.2l-1.7-0.3c-0.1,0-0.3,0-0.4,0c0.1-1.1,0-2.3-0.2-3.4c0.1,0,0.2,0,0.4,0l1.7-0.5
		c0.6-0.2,0.9-0.8,0.8-1.3l-0.5-1.7c-0.2-0.6-0.8-0.9-1.4-0.8l-1.7,0.5c-0.1,0-0.2,0.1-0.3,0.2c-0.4-1-1-2-1.6-3
		c0.1,0,0.2-0.1,0.3-0.2l1.3-1.2c0.4-0.4,0.5-1.1,0.1-1.5l-1.2-1.3c-0.4-0.4-1.1-0.5-1.6-0.1l-1.3,1.2c-0.1,0.1-0.1,0.2-0.2,0.3
		c-0.8-0.7-1.6-1.3-2.5-1.8c-0.1-0.1-0.2-0.1-0.3-0.1c0.1-0.1,0.1-0.2,0.2-0.3l0.7-1.6c0.2-0.6,0-1.2-0.6-1.4l-1.7-0.7
		c-0.6-0.2-1.2,0-1.4,0.6l-0.7,1.6c-0.1,0.1-0.1,0.2-0.1,0.3c-0.7-0.2-1.5-0.4-2.2-0.4c0-0.1,0.1-0.2,0.1-0.3v-1.7
		c0-0.6-0.5-1.1-1.1-1.1h-1.8c-0.6,0-1.1,0.5-1.1,1.1v1.7c0,0.1,0,0.3,0.1,0.4c-1.1,0.1-2.2,0.4-3.3,0.8c0-0.1,0-0.3-0.1-0.4
		l-0.8-1.6c-0.3-0.5-0.9-0.8-1.5-0.5L96,42.4c-0.5,0.3-0.8,0.9-0.5,1.5l0.8,1.6c0.1,0.1,0.1,0.2,0.2,0.3c-0.9,0.6-1.8,1.3-2.6,2.1
		c-0.1-0.1-0.2-0.2-0.3-0.3l-1.4-1.1c-0.5-0.4-1.2-0.3-1.5,0.2l-1.1,1.4c-0.4,0.5-0.3,1.2,0.2,1.5l1.4,1.1c0.1,0.1,0.3,0.2,0.4,0.2
		c0,0.1-0.1,0.1-0.1,0.2c-0.5,0.9-1,1.9-1.3,2.9c-0.1-0.1-0.3-0.1-0.4-0.2L88,53.4c-0.6-0.1-1.2,0.3-1.3,0.8L86.3,56
		c-0.1,0.6,0.3,1.2,0.9,1.3l1.7,0.4c0.2,0,0.3,0,0.5,0c-0.1,1.1-0.1,2.3,0.1,3.4c-0.2,0-0.3,0-0.5,0l-1.7,0.4
		c-0.6,0.1-1,0.7-0.8,1.3l0.4,1.7c0.1,0.6,0.8,0.9,1.3,0.8l1.7-0.4c0.2,0,0.3-0.1,0.4-0.2c0.4,1.1,0.9,2.1,1.6,3
		c-0.2,0-0.3,0.1-0.5,0.2L90.1,69c-0.5,0.4-0.5,1.1-0.1,1.5l1.2,1.4c0.4,0.5,1.1,0.5,1.6,0.1L94,71c0.1-0.1,0.2-0.3,0.3-0.4
		c0.8,0.8,1.7,1.5,2.8,2.1c-0.1,0.1-0.2,0.2-0.3,0.4l-0.7,1.6c-0.2,0.5,0,1.2,0.6,1.4l1.6,0.7c0.6,0.2,1.2,0,1.5-0.6l0.7-1.6
		c0.1-0.2,0.1-0.3,0.1-0.5c1.1,0.3,2.2,0.6,3.4,0.7c-0.1,0.1-0.1,0.3-0.1,0.5l0.1,1.7c0,0.6,0.5,1.1,1.1,1.1l1.8-0.1
		c0.6,0,1.1-0.5,1.1-1.1l-0.1-1.7c0-0.2-0.1-0.3-0.1-0.5c1.1-0.2,2.2-0.5,3.3-0.9c0,0.1,0,0.3,0.1,0.4l0.8,1.5
		c0.3,0.5,1,0.7,1.5,0.5l1.6-0.8c0.5-0.3,0.7-0.9,0.5-1.5l-0.8-1.5c-0.1-0.1-0.2-0.3-0.3-0.3c0.9-0.6,1.8-1.4,2.6-2.2
		c0.1,0.1,0.2,0.2,0.3,0.3l1.4,1c0.5,0.4,1.2,0.2,1.5-0.2l1.1-1.4c0.4-0.5,0.2-1.2-0.2-1.5l-1.4-1c-0.1-0.1-0.2-0.1-0.4-0.2
		c0.6-1,1-2,1.3-3.1c0.1,0.1,0.2,0.1,0.4,0.1l1.7,0.3c0.6,0.1,1.2-0.3,1.3-0.9l0.3-1.8C124.4,60.9,124,60.3,123.4,60.2z M105.3,49.1
		c3,0,5.8,1.4,7.6,3.5H97.7C99.5,50.5,102.3,49.1,105.3,49.1z M105.3,69.1c-3,0-5.8-1.4-7.6-3.5h15.2
		C111.1,67.7,108.3,69.1,105.3,69.1z M114.2,63.6H96.4c-0.5-1.1-0.9-2.2-1-3.5h19.9C115.1,61.3,114.8,62.5,114.2,63.6z M95.3,58.1
		c0.1-1.2,0.5-2.4,1-3.5h17.8c0.5,1.1,0.9,2.2,1,3.5H95.3z"/>
	<polygon class="st2" points="76.7,146.1 76.7,146.1 76.7,146.1 	"/>
	<path class="st2" d="M88.8,92.7C88.7,92.8,88.9,92.6,88.8,92.7L88.8,92.7z"/>
	<path class="st2" d="M83.2,90.8c-2.2,0-4.3,0.2-6.2,0.7c0,0,0,0,0,0c0,0,0,0,0,0c0.7,1.7,2.1,3.1,3.8,3.8c0,0,0,0,0,0
		c1.6,0.7,3.3,0.7,5,0c0,0,0,0,0,0c1.3-0.5,2.4-1.4,3.1-2.6c0.2-0.4,0.5-0.8,0.7-1.2c0,0,0,0,0,0c0,0,0,0,0,0l0,0
		C87.5,91,85.4,90.8,83.2,90.8z"/>
	<path class="st2" d="M98,94.9C98,94.9,98,94.9,98,94.9L98,94.9C98,94.9,98,94.9,98,94.9c-0.2,0.4-0.3,0.8-0.5,1.2
		c0,0.1-0.1,0.1-0.1,0.2c-0.1,0.3-0.3,0.5-0.5,0.8c-0.1,0.1-0.2,0.3-0.2,0.4l0,0l0,0l-2.8-0.6c-0.8,1.1-1.7,2-2.7,2.7l0.7,2.8l0,0
		l0,0c-1.6,1-3.3,1.7-5.1,2.1l-1.5-2.4c-1.3,0.2-2.6,0.2-3.9,0l-1.5,2.5c-0.9-0.2-1.7-0.4-2.5-0.8v0c0,0,0,0,0,0
		c-0.4-0.2-0.8-0.3-1.1-0.5c-0.1,0-0.1-0.1-0.2-0.1c-0.3-0.1-0.5-0.3-0.8-0.5c-0.1-0.1-0.3-0.2-0.4-0.2l0,0l0,0l0.6-2.8
		c-1.1-0.8-2-1.7-2.7-2.7l-2.8,0.7l0,0l0,0c-0.6-0.9-1-1.8-1.4-2.8c-7.6,4.6-12.3,12.4-12.3,19.9c0,12.8,10.1,25.4,17.9,33.3
		l0.3,0.3c0.4-0.5,0.1-0.2,0,0l0,0c0.6-0.8,1.4-1.6,2.2-2.2c-0.7,0.6,0,0,0,0l-1-4.5l3.5-1.4l2.4,3.9c1.1-0.2,2.2-0.1,3.3,0l2.5-3.9
		l3.5,1.5l-1.1,4.5c0.8,0.6,0.1,0.1,0.1,0.1c0.7,0.6,1.4,1.3,2,2l0.3-0.3c3.4-3.4,7.3-7.7,10.5-12.6c-0.6-0.5-1.2-1.2-1.6-1.6
		l-2.2,0.6c-0.8-1.2-1.4-2.6-1.7-3.9l1.9-1.2c-0.2-1-0.2-2-0.1-3l-1.9-1.2c0.3-1.4,0.8-2.8,1.6-4l2.2,0.5c0.6-0.8,1.3-1.6,2.1-2.2
		l-0.6-2.2c1.2-0.8,2.6-1.4,3.9-1.7l1.2,1.9c0.5-0.1,1.7-0.1,2.4-0.1c0.1-0.8,0.1-1.6,0.1-2.5C110.2,107.2,105.6,99.4,98,94.9z"/>
	<path class="st2" d="M83.2,148.5c-2.3,0-4.3,1.1-5.4,2.9l0,0c3.2,2.9,5.4,4.5,5.4,4.6c0.1,0,2.3-1.7,5.4-4.6l0,0
		C87.4,149.6,85.5,148.5,83.2,148.5z"/>
	<path class="st2" d="M76.7,146.1C76.7,146.2,76.7,146.2,76.7,146.1C76.7,146.2,76.7,146.2,76.7,146.1L76.7,146.1z"/>
	<polygon class="st2" points="83.2,155.9 83.2,155.9 83.2,155.9 	"/>
	<path class="st2" d="M104,127.5c0,1.4,0.5,2.7,1.4,3.6c1.6-2.9,2.9-5.9,3.7-8.9C106.3,122.3,104,124.6,104,127.5z"/>
	<path class="st0" d="M56.3,59.8c-0.2-1.2,0.1-2.4,0.7-3.4l-3.7-3.7c-1.4,1.7-2.3,3.9-2.3,6.3c0,2.4,0.8,4.6,2.3,6.3l3.7-3.7
		C56.7,61.2,56.4,60.5,56.3,59.8z"/>
	<path class="st0" d="M67.4,66.8l-3.7-3.7c-0.6,0.4-1.2,0.6-1.9,0.7c-0.3,0-0.5,0.1-0.8,0.1c-1,0-1.9-0.3-2.6-0.8l-3.7,3.7
		c1.7,1.4,3.9,2.3,6.3,2.3C63.5,69.1,65.7,68.2,67.4,66.8z"/>
	<path class="st0" d="M105.3,49.1c-3,0-5.8,1.4-7.6,3.5h15.2C111.1,50.5,108.3,49.1,105.3,49.1z"/>
	<path class="st0" d="M60.3,54.3c1.3-0.2,2.4,0.1,3.4,0.7l3.7-3.7c-1.7-1.4-3.9-2.3-6.3-2.3c-2.4,0-4.6,0.8-6.3,2.3l3.7,3.7
		C59,54.7,59.6,54.4,60.3,54.3z"/>
	<path class="st0" d="M65.9,58.3c0.2,1.2-0.1,2.4-0.7,3.4l3.7,3.7c1.4-1.7,2.3-3.9,2.3-6.3c0-2.4-0.8-4.6-2.3-6.3l-3.7,3.7
		C65.5,57,65.8,57.6,65.9,58.3z"/>
	<path class="st0" d="M61.1,56.2c-0.1,0-0.3,0-0.4,0c-1.6,0.2-2.6,1.7-2.4,3.3c0.2,1.5,1.7,2.6,3.3,2.4c0.8-0.1,1.4-0.5,1.9-1.1
		c0.4-0.6,0.6-1.4,0.5-2.1C63.7,57.3,62.5,56.2,61.1,56.2z"/>
	<path class="st0" d="M96.4,54.6c-0.5,1.1-0.9,2.2-1,3.5h19.9c-0.1-1.2-0.5-2.4-1-3.5H96.4z"/>
	<path class="st0" d="M105.3,69.1c3,0,5.8-1.4,7.6-3.5H97.7C99.5,67.7,102.3,69.1,105.3,69.1z"/>
	<path class="st1" d="M115.8,135.9c0.4-0.4,0.7-0.8,1.1-1.2c-0.3,0.4-0.7,0.7-1.1,1L115.8,135.9z"/>
	<path class="st1" d="M116.9,134.6c0.3-0.4,0.6-0.7,0.9-1.1l0,0C117.5,133.9,117.2,134.3,116.9,134.6z"/>
	<path class="st0" d="M96.4,63.6h17.8c0.5-1.1,0.9-2.2,1-3.5H95.3C95.5,61.3,95.8,62.5,96.4,63.6z"/>
	<path class="st0" d="M107.7,117.3l-1.2-1.9c-1.4,0.3-2.7,0.9-3.9,1.7l0.6,2.2c-0.8,0.6-1.5,1.3-2.1,2.2l-2.2-0.5
		c-0.8,1.3-1.3,2.6-1.6,4l1.9,1.2c-0.1,1-0.1,2,0.1,3l-1.9,1.2c0.3,1.4,0.9,2.7,1.7,3.9l2.2-0.6c0.3,0.5,0.9,1.1,1.6,1.6
		c0.9-1.4,1.8-2.9,2.7-4.3c-0.9-1-1.4-2.2-1.4-3.6c0-2.9,2.3-5.2,5.1-5.3c0.4-1.6,0.8-3.3,0.9-4.9
		C109.4,117.2,108.2,117.2,107.7,117.3z"/>
	<path class="st1" d="M74.4,148.4C74.4,148.4,74.4,148.4,74.4,148.4L74.4,148.4C74.4,148.4,74.4,148.4,74.4,148.4z"/>
	<path class="st1" d="M76.7,146.1C76.6,146.2,75.9,146.7,76.7,146.1C76.7,146.2,76.7,146.2,76.7,146.1L76.7,146.1z"/>
	<path class="st1" d="M74.4,148.3L74.4,148.3C74.6,148.2,74.8,147.9,74.4,148.3z"/>
	<path class="st0" d="M90,146.3C90,146.3,90.7,146.9,90,146.3l1-4.6l-3.5-1.5l-2.5,3.9c-1.1-0.2-2.2-0.2-3.3,0l-2.4-3.9l-3.5,1.4
		l1,4.5c0,0,0,0,0,0c0,0,0,0,0,0l0,0c0,0,0,0,0,0c-0.8,0.6-1.6,1.3-2.2,2.2l3.3,3c1.2-1.7,3.2-2.9,5.4-2.9c2.3,0,4.2,1.1,5.4,2.8
		l3.3-3C91.4,147.6,90.7,146.9,90,146.3z"/>
	<path class="st1" d="M94.2,153.7C94.3,154.6,94.2,153.7,94.2,153.7C94.2,153.7,94.2,153.7,94.2,153.7z"/>
	<path class="st0" d="M125.5,71.2c2.1-3.5,3.3-7.6,3.3-12c0-0.1,0-0.1,0-0.2c0-23.3,4.9-36.2,4.9-36.2h-1.1c-10,0-19.9,2.2-28,6
		C98.4,24.4,91,22,83.2,22c-7.7,0-15.1,2.4-21.3,6.9c-8.2-3.9-18.1-6.1-28.1-6.1h-1.1c0,0,4.9,12.9,4.9,36.2c0,0.1,0,0.1,0,0.2
		c0,4.4,1.2,8.5,3.3,12c-20.7,26.3-0.7,62,31.2,83.2c1.6,1.1,3.2,2.1,4.9,3.1c2,1.2,4.1,2.4,6.2,3.4h0c2.1-1.1,4.2-2.3,6.2-3.5
		c1.6-1,3.2-2,4.8-3c6.6-4.4,12.8-9.4,18.1-14.9c1.2-1.2,2.3-2.4,3.4-3.7l-0.1-0.2c0.4-0.3,0.8-0.6,1.1-1c0,0,0-0.1,0.1-0.1
		c0.3-0.3,0.6-0.7,0.9-1.1l0,0c1.1-1.3,2.1-2.6,3.1-3.9C134.9,110.7,139.4,88.8,125.5,71.2z M83.2,24.8c6.7,0,13,1.9,18.5,5.5
		c-0.5,0.3-1,0.5-1.4,0.8c-8,4.8-14.4,11.7-17.1,20c-2.7-8.3-9.1-15.2-17.1-20c-0.4-0.3-0.9-0.5-1.3-0.7
		C70.2,26.8,76.6,24.8,83.2,24.8z M88.8,92.7c-0.7,1.1-1.9,2.1-3.1,2.6c0,0,0,0,0,0c-1.7,0.7-3.3,0.7-5,0c0,0,0,0,0,0
		c-1.7-0.7-3.1-2.1-3.8-3.8c0,0,0,0,0,0c0,0,0,0,0,0c2-0.4,4.1-0.7,6.2-0.7c2.2,0,4.3,0.2,6.3,0.7l0,0c0,0,0,0,0,0c0,0,0,0,0,0
		C89.3,91.9,89.1,92.3,88.8,92.7C88.9,92.6,88.7,92.8,88.8,92.7z M86.7,83.3c-1.8,1.9-3.5,3.2-3.5,3.2s-1.7-1.3-3.5-3.2
		c-1.9-2.1-3.9-4.8-3.9-7.6l1.1-1.3l6.3-7.7l6.4,7.7l1.1,1.3C90.6,78.4,88.6,81.2,86.7,83.3z M54.1,76.8l-1.6-0.7
		c-0.5-0.2-0.8-0.9-0.6-1.4l0.7-1.6c0.1-0.2,0.2-0.3,0.3-0.4c-1-0.6-1.9-1.3-2.8-2.1c-0.1,0.2-0.2,0.3-0.3,0.4l-1.3,1.1
		C48,72.5,47.3,72.4,47,72l-1.2-1.4c-0.4-0.5-0.3-1.2,0.1-1.5l1.3-1.1c0.1-0.1,0.3-0.2,0.5-0.2c-0.6-1-1.2-2-1.6-3
		c-0.1,0.1-0.3,0.2-0.4,0.2L44,65.3c-0.6,0.1-1.2-0.2-1.3-0.8l-0.4-1.7c-0.1-0.6,0.2-1.2,0.8-1.3l1.7-0.4c0.2,0,0.3,0,0.5,0
		c-0.1-1.1-0.2-2.3-0.1-3.4c-0.2,0-0.3,0-0.5,0L43,57.3c-0.6-0.1-1-0.7-0.9-1.3l0.4-1.7c0.1-0.6,0.7-1,1.3-0.8l1.7,0.4
		c0.1,0,0.3,0.1,0.4,0.2c0.3-1,0.8-1.9,1.3-2.9c0-0.1,0.1-0.1,0.1-0.2c-0.1,0-0.3-0.1-0.4-0.2l-1.4-1.1c-0.5-0.4-0.6-1.1-0.2-1.5
		l1.1-1.4c0.4-0.5,1.1-0.6,1.5-0.2l1.4,1.1c0.1,0.1,0.2,0.2,0.3,0.3c0.8-0.8,1.7-1.5,2.6-2.1c-0.1-0.1-0.2-0.2-0.2-0.3l-0.8-1.6
		c-0.3-0.5,0-1.2,0.5-1.5l1.6-0.8c0.5-0.3,1.2,0,1.5,0.5l0.8,1.6c0.1,0.1,0.1,0.2,0.1,0.4c1.1-0.4,2.2-0.6,3.3-0.8
		c0-0.1-0.1-0.2-0.1-0.4v-1.7c0-0.6,0.5-1.1,1.1-1.1H62c0.6,0,1.1,0.5,1.1,1.1v1.7c0,0.1,0,0.2-0.1,0.3c0.8,0.1,1.5,0.2,2.3,0.4
		c0-0.1,0-0.2,0.1-0.3l0.7-1.6c0.2-0.6,0.9-0.8,1.4-0.6l1.7,0.7c0.6,0.2,0.8,0.9,0.6,1.4L69,44.8c0,0.1-0.1,0.2-0.2,0.3
		c0.1,0.1,0.2,0.1,0.3,0.1c0.9,0.5,1.8,1.1,2.5,1.8c0.1-0.1,0.1-0.2,0.2-0.3l1.3-1.2c0.5-0.4,1.2-0.4,1.6,0.1l1.2,1.3
		c0.4,0.4,0.4,1.1-0.1,1.5l-1.3,1.2c-0.1,0.1-0.2,0.1-0.3,0.2c0.7,0.9,1.2,1.9,1.6,3c0.1-0.1,0.2-0.1,0.3-0.2l1.7-0.5
		c0.6-0.2,1.2,0.2,1.4,0.8l0.5,1.7c0.2,0.6-0.2,1.2-0.8,1.4l-1.7,0.5c-0.1,0-0.2,0-0.4,0c0.2,1.1,0.2,2.2,0.2,3.4c0.1,0,0.3,0,0.4,0
		l1.7,0.3c0.6,0.1,1,0.7,0.9,1.3l-0.3,1.8c-0.1,0.6-0.7,1-1.3,0.9l-1.7-0.3c-0.1,0-0.3-0.1-0.4-0.1c-0.3,1.1-0.8,2.1-1.3,3.1
		c0.1,0,0.3,0.1,0.4,0.2l1.4,1c0.5,0.4,0.6,1,0.2,1.5L76,71c-0.4,0.5-1.1,0.6-1.5,0.2l-1.4-1c-0.1-0.1-0.2-0.2-0.3-0.3
		c-0.8,0.8-1.7,1.6-2.6,2.2c0.1,0.1,0.2,0.2,0.3,0.3l0.8,1.5c0.3,0.5,0.1,1.2-0.5,1.5l-1.6,0.8c-0.5,0.3-1.2,0.1-1.5-0.5l-0.8-1.5
		c-0.1-0.1-0.1-0.3-0.1-0.4c-1.1,0.4-2.2,0.7-3.3,0.9c0.1,0.1,0.1,0.3,0.1,0.5l0.1,1.7c0,0.6-0.5,1.1-1.1,1.1l-1.8,0.1
		c-0.6,0-1.1-0.5-1.1-1.1l-0.1-1.7c0-0.2,0-0.3,0.1-0.5c-1.1-0.1-2.3-0.3-3.4-0.7c0,0.2,0,0.3-0.1,0.5l-0.7,1.6
		C55.3,76.8,54.6,77,54.1,76.8z M94.2,153.7C94.2,153.7,94.2,153.7,94.2,153.7C94.2,153.7,94.3,154.6,94.2,153.7z M110.1,117.3
		c-0.2,1.7-0.5,3.3-0.9,4.9c-0.8,3.1-2.1,6.1-3.7,8.9c-0.8,1.5-1.7,2.9-2.7,4.3c-3.2,4.8-7.1,9.2-10.5,12.6l-0.3,0.3l-3.3,3l0,0
		c-3.2,2.9-5.4,4.5-5.4,4.6c0,0,0,0,0,0h0c0,0,0,0,0,0c-0.1,0-2.3-1.7-5.4-4.6l0,0l-3.3-3c0,0-0.1,0.1-0.1,0.1c0,0,0,0,0.1-0.1l0,0
		l-0.3-0.3c-7.9-7.8-17.9-20.4-17.9-33.3c0-7.6,4.6-15.4,12.3-19.9c0.4,1,0.9,1.9,1.4,2.8l0,0l0,0l2.8-0.7c0.8,1,1.7,1.9,2.7,2.7
		l-0.6,2.8l0,0l0,0c0.1,0.1,0.3,0.2,0.4,0.2c0.3,0.2,0.5,0.3,0.8,0.5c0.1,0,0.1,0.1,0.2,0.1c0.4,0.2,0.7,0.4,1.1,0.5c0,0,0,0,0,0v0
		c0.8,0.3,1.7,0.6,2.5,0.8l1.5-2.5c1.3,0.2,2.6,0.2,3.9,0l1.5,2.4c1.8-0.4,3.5-1.1,5.1-2.1l0,0l0,0l-0.7-2.8c1-0.8,1.9-1.7,2.7-2.7
		l2.8,0.6l0,0l0,0c0.1-0.1,0.2-0.3,0.2-0.4c0.2-0.3,0.3-0.5,0.5-0.8c0-0.1,0.1-0.1,0.1-0.2c0.2-0.4,0.4-0.7,0.5-1.1c0,0,0,0,0,0h0
		c0,0,0,0,0,0c7.6,4.6,12.2,12.4,12.2,19.9C110.2,115.6,110.2,116.4,110.1,117.3z M124,63.2c-0.1,0.6-0.7,1-1.3,0.9l-1.7-0.3
		c-0.1,0-0.3-0.1-0.4-0.1c-0.3,1.1-0.8,2.1-1.3,3.1c0.1,0,0.3,0.1,0.4,0.2l1.4,1c0.5,0.4,0.6,1,0.2,1.5l-1.1,1.4
		c-0.4,0.5-1.1,0.6-1.5,0.2l-1.4-1c-0.1-0.1-0.2-0.2-0.3-0.3c-0.8,0.8-1.7,1.6-2.6,2.2c0.1,0.1,0.2,0.2,0.3,0.3l0.8,1.5
		c0.3,0.5,0.1,1.2-0.5,1.5l-1.6,0.8c-0.5,0.3-1.2,0.1-1.5-0.5l-0.8-1.5c-0.1-0.1-0.1-0.3-0.1-0.4c-1.1,0.4-2.2,0.7-3.3,0.9
		c0.1,0.1,0.1,0.3,0.1,0.5l0.1,1.7c0,0.6-0.5,1.1-1.1,1.1l-1.8,0.1c-0.6,0-1.1-0.5-1.1-1.1l-0.1-1.7c0-0.2,0-0.3,0.1-0.5
		c-1.1-0.1-2.3-0.3-3.4-0.7c0,0.2,0,0.3-0.1,0.5l-0.7,1.6c-0.2,0.5-0.9,0.8-1.5,0.6l-1.6-0.7c-0.5-0.2-0.8-0.9-0.6-1.4l0.7-1.6
		c0.1-0.2,0.2-0.3,0.3-0.4c-1-0.6-1.9-1.3-2.8-2.1c-0.1,0.2-0.2,0.3-0.3,0.4l-1.3,1.1c-0.5,0.4-1.2,0.3-1.6-0.1L90,70.6
		c-0.4-0.5-0.3-1.1,0.1-1.5l1.3-1.1c0.1-0.1,0.3-0.2,0.5-0.2c-0.6-1-1.2-2-1.6-3c-0.1,0.1-0.3,0.2-0.4,0.2l-1.7,0.4
		c-0.6,0.1-1.2-0.2-1.3-0.8l-0.4-1.7c-0.1-0.6,0.2-1.2,0.8-1.3l1.7-0.4c0.2,0,0.3,0,0.5,0c-0.1-1.1-0.2-2.3-0.1-3.4
		c-0.2,0-0.3,0-0.5,0l-1.7-0.4c-0.6-0.1-1-0.7-0.9-1.3l0.4-1.7c0.1-0.6,0.7-1,1.3-0.8l1.7,0.4c0.1,0,0.3,0.1,0.4,0.2
		c0.3-1,0.8-1.9,1.3-2.9c0-0.1,0.1-0.1,0.1-0.2c-0.1,0-0.3-0.1-0.4-0.2l-1.4-1.1c-0.5-0.4-0.6-1.1-0.2-1.5l1.1-1.4
		c0.4-0.5,1.1-0.6,1.5-0.2l1.4,1.1c0.1,0.1,0.2,0.2,0.3,0.3c0.8-0.8,1.7-1.5,2.6-2.1c-0.1-0.1-0.2-0.2-0.2-0.3l-0.8-1.6
		c-0.3-0.5,0-1.2,0.5-1.5l1.6-0.8c0.5-0.3,1.2,0,1.5,0.5l0.8,1.6c0.1,0.1,0.1,0.2,0.1,0.4c1.1-0.4,2.2-0.6,3.3-0.8
		c0-0.1-0.1-0.2-0.1-0.4v-1.7c0-0.6,0.5-1.1,1.1-1.1h1.8c0.6,0,1.1,0.5,1.1,1.1v1.7c0,0.1,0,0.2-0.1,0.3c0.8,0.1,1.5,0.2,2.2,0.4
		c0-0.1,0-0.2,0.1-0.3l0.7-1.6c0.2-0.6,0.9-0.8,1.4-0.6l1.7,0.7c0.6,0.2,0.8,0.9,0.6,1.4l-0.7,1.6c0,0.1-0.1,0.2-0.2,0.3
		c0.1,0.1,0.2,0.1,0.3,0.1c0.9,0.5,1.8,1.1,2.5,1.8c0.1-0.1,0.1-0.2,0.2-0.3l1.3-1.2c0.4-0.4,1.2-0.4,1.6,0.1l1.2,1.3
		c0.4,0.4,0.4,1.1-0.1,1.5l-1.3,1.2c-0.1,0.1-0.2,0.1-0.3,0.2c0.7,0.9,1.2,1.9,1.6,3c0.1-0.1,0.2-0.1,0.3-0.2l1.7-0.5
		c0.6-0.2,1.2,0.2,1.4,0.8l0.5,1.7c0.2,0.6-0.2,1.2-0.8,1.3l-1.7,0.5c-0.1,0-0.2,0-0.4,0c0.2,1.1,0.2,2.2,0.2,3.4c0.1,0,0.2,0,0.4,0
		l1.7,0.3c0.6,0.1,1,0.7,0.9,1.3L124,63.2z"/>
</g>
</svg>
