<svg width="52" height="50" viewBox="0 0 52 50" fill="none" xmlns="http://www.w3.org/2000/svg">
<path d="M25.9741 0.833252C11.7141 0.833252 0.140808 11.6599 0.140808 24.9999C0.140808 38.3399 11.7141 49.1666 25.9741 49.1666C40.2341 49.1666 51.8075 38.3399 51.8075 24.9999C51.8075 11.6599 40.2341 0.833252 25.9741 0.833252ZM35.3 16.1549C38.0641 16.1549 40.2858 18.2333 40.2858 20.8191C40.2858 23.4049 38.0641 25.4833 35.3 25.4833C32.5358 25.4833 30.3141 23.4049 30.3141 20.8191C30.2883 18.2333 32.5358 16.1549 35.3 16.1549ZM19.8 12.3366C23.1583 12.3366 25.8966 14.8983 25.8966 18.0399C25.8966 21.1816 23.1583 23.7433 19.8 23.7433C16.4416 23.7433 13.7033 21.1816 13.7033 18.0399C13.7033 14.8741 16.4158 12.3366 19.8 12.3366ZM19.8 34.4008V43.4633C13.6 41.6508 8.69164 37.1799 6.52164 31.4766C9.23414 28.7699 16.0025 27.3924 19.8 27.3924C21.1691 27.3924 22.9 27.5858 24.7083 27.9241C20.4716 30.0266 19.8 32.8058 19.8 34.4008ZM25.9741 44.3333C25.2766 44.3333 24.605 44.3091 23.9333 44.2366V34.4008C23.9333 30.9691 31.5283 29.2533 35.3 29.2533C38.0641 29.2533 42.8433 30.1958 45.22 32.0324C42.1975 39.2099 34.7316 44.3333 25.9741 44.3333Z" fill="#21408E"/>
</svg>
